<?xml version="1.0" encoding="utf-8"?>
<!-- Generator: Adobe Illustrator 19.2.1, SVG Export Plug-In . SVG Version: 6.00 Build 0)  -->
<svg version="1.1" id="DH-NL-RGB-Comp" xmlns="http://www.w3.org/2000/svg" xmlns:xlink="http://www.w3.org/1999/xlink" x="0px"
	 y="0px" viewBox="0 0 703 674.6" style="enable-background:new 0 0 703 674.6;" xml:space="preserve">
<style type="text/css">
	.st0{fill:none;}
	.st1{fill:#155429;}
	.st2{fill:#1D6B34;}
	.st3{fill:#FFFFFF;}
	.st4{fill:#E3C029;}
	.st5{fill:#D2AD15;}
	.st6{fill:url(#SVGID_1_);}
	.st7{fill:#EFD544;}
	.st8{fill:#B98F16;}
	.st9{fill:#F6E477;}
	.st10{fill:url(#SVGID_2_);}
	.st11{fill:#4B4B4B;}
	.st12{fill:#636363;}
</style>
<g>
	<rect x="0" y="0" class="st0" width="703" height="674.6"/>
	<g>
		<path class="st1" d="M161.5,481c-8.3,0-16.6,0.4-22,0.4h-8.4v7.8c2.6,0.6,5.7,1.1,8.7,1.3v49.3c-3,0.2-6.1,0.7-8.7,1.3v7.8h8.7
			c3.3,0,11.7,0.4,18.7,0.4c22,0,37.2-12.1,37.2-35.3C195.7,490.4,182.4,481,161.5,481z M159.7,538.5c-2.5,0-5.3-0.1-7.2-0.4v-46.1
			c2.1-0.2,5.1-0.3,8.1-0.3c15.6,0,21.5,8.7,21.5,23.4C182.1,531.3,172.8,538.5,159.7,538.5z M226.4,498.2
			c-14.7,0-23.4,11.4-23.4,26.3c0,17.5,8.7,25.4,24.5,25.4c5.9,0,12.2-1.1,17.8-3l-1.3-9.3c-5.1,1.7-10.1,2.6-15,2.6
			c-9.3,0-13.3-4.7-13.4-13.6h31c0,0,0.4-3.6,0.4-7.3C247,507.5,240.9,498.2,226.4,498.2z M215.7,518.3c0.7-6.8,4.7-10.8,10.1-10.8
			c5.5,0,9,3.7,8.8,10.8H215.7z M288.8,498.2c-8.2,0-14,4.1-17,10.1l-0.1-0.1c0.5-2.7,0.7-6.7,0.7-9.1c-6.6-0.2-14.2,0.1-20.5,0.9
			v7.7c2.9,0.2,6.3,0.6,8.7,1V549h12.5v-24c0-8.9,5.1-16.3,11.7-16.3c4.9,0,6.4,3.2,6.4,8.5V549h12.4V514
			C303.6,505.3,300,498.2,288.8,498.2z M509.3,515.7c0-11-4.8-17.5-20.1-17.5c-6.1,0-13,1.5-18.5,3.5l1.9,9.4
			c4.8-1.9,10.6-3.3,15.1-3.3c6.7,0,9,2.8,9,8.7v2.1c-17.4,0-28.8,5.6-28.8,17.3c0,8.1,5.3,14.1,14.2,14.1c7.5,0,13.6-4,16-9.6
			l0.1,0.1c-0.4,2.6-0.5,5.6-0.5,8.6c6.4,0.2,14-0.1,20.3-0.9v-7.7c-2.9-0.2-6.3-0.6-8.7-1V515.7z M496.7,528.3
			c0,5.9-4.2,12.1-10.6,12.1c-3.8,0-6.1-2.6-6.1-6c0-4.3,3.6-7.6,16.7-7.6V528.3z M549.9,498.3c-17.5,0-27.1,11.5-27.1,28.3
			c0,15.2,6.6,23.3,18.5,23.3c6.6,0,12.2-3.6,14.8-9.4l0.2,0.1c-0.5,2.6-0.6,4.8-0.6,7.3v3.1c0,8.5-4.5,12.3-14,12.3
			c-4.9,0-10.3-0.9-14.7-2.5l-1.2,11.3c4.2,1,9.6,1.7,15.2,1.7c18.9,0,27-8.9,27-24v-50C562.6,498.9,556.8,498.3,549.9,498.3z
			 M555.6,523c0,8.7-4.1,16.6-11,16.6c-5.9,0-8.7-4.8-8.7-14.1c0-12.5,5.3-17.2,12.8-17.2c2.5,0,4.7,0.3,6.9,0.8V523z M378.7,489.4
			c2.3,0.5,5,0.9,7.4,1.1v18H357v-18c2.4-0.2,5.1-0.6,7.4-1.1v-8h-27.8v7.8c2.6,0.6,5.7,1.1,8.7,1.3v49.3c-3,0.2-6.1,0.7-8.7,1.3
			v7.8h27.8v-8c-2.3-0.5-5-0.9-7.4-1.1v-20.3h29.1v20.3c-2.4,0.2-5.1,0.6-7.4,1.1v8h27.8v-7.8c-2.6-0.6-5.7-1.1-8.7-1.3v-49.3
			c3-0.2,6.1-0.7,8.7-1.3v-7.8h-27.8V489.4z M454.2,515.7c0-11-4.8-17.5-20.1-17.5c-6.1,0-13,1.5-18.5,3.5l1.9,9.4
			c4.8-1.9,10.6-3.3,15.1-3.3c6.7,0,9,2.8,9,8.7v2.1c-17.4,0-28.8,5.6-28.8,17.3c0,8.1,5.3,14.1,14.2,14.1c7.5,0,13.6-4,16-9.6
			l0.1,0.1c-0.4,2.6-0.5,5.6-0.5,8.6c6.4,0.2,14-0.1,20.3-0.9v-7.7c-2.9-0.2-6.3-0.6-8.7-1V515.7z M441.6,528.3
			c0,5.9-4.2,12.1-10.6,12.1c-3.8,0-6.1-2.6-6.1-6c0-4.3,3.6-7.6,16.7-7.6V528.3z"/>
		<g>
			<path class="st2" d="M497,385.5h-86.3v48.2H497c62.8,0,85.9-4.8,85.9-4.8v-48.7C582.9,380.2,559.5,385.5,497,385.5z"/>
			<path class="st2" d="M298.8,373.3l15.7,36.8c11.6-0.1,23.4-0.2,35.4-0.2c18.2,0,36,0.2,53.3,0.4v-33.6l72.4-9.4
				c0,0-10.1-1.7-37.4-3.7c-27.3-2-66.6-1.3-66.6-1.3s-15.8,5.3-21.8,6.4c-6.1-1.1-21.8-6.4-21.8-6.4s-39-0.7-66.3,1.3
				c-27.3,2-45.5,4.9-45.6,4.9L298.8,373.3z"/>
			<path class="st1" d="M295.3,378l0.1,32.4c6.3-0.1,12.6-0.2,19.1-0.3l-15.7-36.8l-82.8-4.8v9.3C271.9,377.6,295.3,378,295.3,378z"
				/>
			<path class="st2" d="M287.8,385.5h-85.3c-62.5,0-85.9-5.3-85.9-5.3v48.7c0,0,23.1,4.8,85.9,4.8h85.3V385.5z"/>
			<path class="st1" d="M124.2,381.5c-5.3-0.7-7.6-1.3-7.6-1.3v48.7c0,0,8.3,1.7,28.6,3.1C131.7,416.9,125.2,398.1,124.2,381.5z"/>
			<g>
				<path class="st3" d="M145.2,397.2h9.2v2.9h-2.5l5.8,16.2c0.2,0.7,0.4,1.4,0.6,2.1h0.1c0.2-0.7,0.3-1.5,0.6-2.1l5.7-16.2h-2.8
					v-2.9h9v2.9h-2.2l-8.4,21.6h-4.3l-8.5-21.6h-2.1V397.2z"/>
				<path class="st3" d="M173.1,418.8h2.4l0.1-18.8h-2.6v-2.9H184c5,0,7.4,2.9,7.4,6.5c0,4.2-2.7,6.2-5.8,6.5v0.1
					c1.4,0.1,2.3,1.3,3.1,2.7l2.7,4.5c0.7,1.2,1.4,1.5,2.2,1.5h0.9v2.9h-2.3c-2.1,0-3-0.2-4.4-2.6l-3.4-5.7c-1-1.8-1.5-2.1-2.7-2.1
					h-2.1l-0.1,7.6h2.8v2.9h-9.2V418.8z M182.6,408.1c2.8,0,4.7-1.5,4.7-4.1c0-2.6-1.6-4-4.4-4h-3.3l-0.1,8.1H182.6z"/>
				<path class="st3" d="M197.5,418.8h2.5L200,400h-2.8v-2.9h17.2l0.1,6.4h-3.3l-0.2-3.6H204l-0.1,7.6h7v3.1h-7l-0.1,8.1h7.5l0.3-4
					h3.3l-0.3,6.9h-17.2V418.8z"/>
				<path class="st3" d="M218.8,418.8h2.5l0.1-18.8h-2.6v-2.9h11.6c7.9,0,12.4,4.6,12.4,11.7c0,7.2-4.6,12.8-12.4,12.8h-11.6V418.8z
					 M229.2,418.8c6,0,9.3-3.6,9.3-9.8c0-5.5-3.2-9-9.2-9h-4l-0.1,18.8H229.2z"/>
				<path class="st3" d="M245.6,418.8h2.5l0.1-18.8h-2.8v-2.9h17.2l0.1,6.4h-3.3l-0.2-3.6h-7.1l-0.1,7.6h7v3.1h-7l-0.1,8.1h7.5
					l0.3-4h3.3l-0.3,6.9h-17.2V418.8z"/>
			</g>
			<g>
				<path class="st3" d="M435.8,418.8h2.4l0.1-18.8h-2.6v-2.9h10.9c5,0,7.4,2.9,7.4,6.5c0,4.2-2.7,6.2-5.8,6.5v0.1
					c1.4,0.1,2.3,1.3,3.1,2.7l2.7,4.5c0.7,1.2,1.4,1.5,2.2,1.5h0.9v2.9h-2.3c-2.1,0-3-0.2-4.4-2.6l-3.4-5.7c-1-1.8-1.5-2.1-2.7-2.1
					h-2.1l-0.1,7.6h2.8v2.9h-9.2V418.8z M445.3,408.1c2.8,0,4.7-1.5,4.7-4.1c0-2.6-1.6-4-4.4-4h-3.3l-0.1,8.1H445.3z"/>
				<path class="st3" d="M460.1,418.8h2.5l0.1-18.8h-2.8v-2.9h17.2l0.1,6.4H474l-0.2-3.6h-7.1l-0.1,7.6h7v3.1h-7l-0.1,8.1h7.5l0.3-4
					h3.3l-0.3,6.9h-17.2V418.8z"/>
				<path class="st3" d="M497.7,404.3v-3.9c-0.9-0.2-2.3-0.6-4.2-0.6c-5.8,0-8.9,3.6-8.9,9.7c0,5.6,3.4,9.5,8.4,9.5
					c1.7,0,3.5-0.2,4.4-0.4l0.1-4.4h3.5l-0.1,6.7c-1.6,0.5-4.7,1.2-7.6,1.2c-8.8,0-13-5.5-13-12.4c0-7.6,5.1-12.9,13.3-12.9
					c3.1,0,6,0.7,7.6,1.3v6.3H497.7z"/>
				<path class="st3" d="M520.3,418.8h2.5l0.1-7.9h-11.4l-0.1,7.9h2.6v2.9h-9v-2.9h2.5l0.1-18.8H505v-2.9h9v2.9h-2.5l-0.1,7.8h11.4
					l0.1-7.8h-2.6v-2.9h9v2.9h-2.5l-0.1,18.8h2.6v2.9h-9V418.8z"/>
				<path class="st3" d="M538.6,418.8h2.5l0.1-18.8h-5.7l-0.1,3.6H532l0.1-6.4h22.2l0.1,6.4H551l-0.1-3.6h-5.6l-0.1,18.8h2.8v2.9
					h-9.3V418.8z"/>
			</g>
			<g>
				<path class="st4" d="M351,165.8c23.4,0,41,1.1,52.8,2.3l2.7-21.3c-11.5-1-33.1-3.5-56.5-3.5c-23.7,0-45.9,2.6-57.6,3.6l2.8,21.6
					C306.7,167.2,325.4,165.8,351,165.8z M388.3,156.3c0.2-1.8,2.3-2.9,5.3-2.9c0.5,0,0.9,0,1.4,0.1c1.6,0.2,3,0.7,4.1,1.4
					c1.3,0.8,1.9,1.9,1.7,3c-0.2,1.7-2.3,2.9-5.3,2.9c-0.5,0-0.9,0-1.4-0.1C390.5,160.2,388,158.3,388.3,156.3z M372.1,151l7.2,3.9
					l-7.4,3.6l-7.2-3.9L372.1,151z M349.4,150.3c3.9,0,6.8,1.7,6.8,3.9c0,2.2-2.9,3.9-6.8,3.9c-3.9,0-6.8-1.7-6.8-3.9
					C342.6,151.9,345.6,150.3,349.4,150.3z M326.8,151l7.4,3.5l-7.2,3.9l-7.4-3.6L326.8,151z M299.8,154.8c1.1-0.7,2.5-1.2,4.1-1.4
					c0.5-0.1,0.9-0.1,1.4-0.1c3,0,5.1,1.2,5.3,2.9c0.3,2.1-2.3,3.9-5.8,4.4c-0.5,0.1-0.9,0.1-1.4,0.1c-3,0-5.1-1.2-5.3-2.9
					C297.9,156.7,298.5,155.6,299.8,154.8z"/>
				<g>
					<g>
						<path class="st4" d="M355.5,121.1c0-3.1-2.5-5.7-5.7-5.7c-3.1,0-5.7,2.5-5.7,5.7c0,3.1,2.5,5.7,5.7,5.7
							C352.9,126.8,355.5,124.2,355.5,121.1z M295,124.9c0-3.1-2.5-5.7-5.7-5.7c-3.1,0-5.7,2.5-5.7,5.7c0,3.1,2.5,5.7,5.7,5.7
							C292.4,130.6,295,128.1,295,124.9z M343.3,128.1c-3.1,0-5.7,2.5-5.7,5.7c0,3.1,2.5,5.7,5.7,5.7c3.1,0,5.7-2.5,5.7-5.7
							C349,130.6,346.4,128.1,343.3,128.1z M330.3,129c-3.1,0-5.7,2.5-5.7,5.7c0,3.1,2.5,5.7,5.7,5.7s5.7-2.5,5.7-5.7
							C335.9,131.6,333.4,129,330.3,129z M317.2,130c-3.1,0-5.7,2.5-5.7,5.7c0,3.1,2.5,5.7,5.7,5.7c3.1,0,5.7-2.5,5.7-5.7
							C322.9,132.5,320.4,130,317.2,130z M304.2,130.9c-3.1,0-5.7,2.5-5.7,5.7c0,3.1,2.5,5.7,5.7,5.7s5.7-2.5,5.7-5.7
							C309.9,133.5,307.4,130.9,304.2,130.9z M291.2,131.9c-3.1,0-5.7,2.5-5.7,5.7c0,3.1,2.5,5.7,5.7,5.7c3.1,0,5.7-2.5,5.7-5.7
							C296.9,134.4,294.3,131.9,291.2,131.9z M356.3,128.1c-3.1,0-5.7,2.5-5.7,5.7c0,2.5,1.6,4.5,3.7,5.3l5.6-9.7
							C359,128.6,357.7,128.1,356.3,128.1z"/>
						<path class="st5" d="M410.3,119.3c-3.1,0-5.7,2.5-5.7,5.7c0,3.1,2.5,5.7,5.7,5.7c3.1,0,5.7-2.5,5.7-5.7
							C416,121.8,413.4,119.3,410.3,119.3z M408.4,131.9c-3.1,0-5.7,2.5-5.7,5.7c0,3.1,2.5,5.7,5.7,5.7c3.1,0,5.7-2.5,5.7-5.7
							C414.1,134.4,411.5,131.9,408.4,131.9z M395.4,130.9c-3.1,0-5.7,2.5-5.7,5.7c0,3.1,2.5,5.7,5.7,5.7c3.1,0,5.7-2.5,5.7-5.7
							C401,133.5,398.5,130.9,395.4,130.9z M382.3,130c-3.1,0-5.7,2.5-5.7,5.7c0,3.1,2.5,5.7,5.7,5.7c3.1,0,5.7-2.5,5.7-5.7
							C388,132.5,385.5,130,382.3,130z M369.3,129c-3.1,0-5.7,2.5-5.7,5.7c0,3.1,2.5,5.7,5.7,5.7c3.1,0,5.7-2.5,5.7-5.7
							C375,131.6,372.5,129,369.3,129z M360,129.4l-5.6,9.7c0.6,0.2,1.2,0.3,1.9,0.3c3.1,0,5.7-2.5,5.7-5.7
							C362,132,361.2,130.4,360,129.4z"/>
					</g>
				</g>
				<path class="st5" d="M349.4,158c-2.3,0-4.3-0.6-5.5-1.5l-5.6,9.4c4-0.1,8.2-0.1,12.6-0.1c23.4,0,41,1.1,52.8,2.3l2.7-21.3
					c-11.2-1-31.9-3.4-54.6-3.5l-4.3,7.2c0.6-0.1,1.2-0.1,1.9-0.1c3.9,0,6.8,1.7,6.8,3.9C356.2,156.4,353.3,158,349.4,158z
					 M388.3,156.3c0.2-1.8,2.3-2.9,5.3-2.9c0.5,0,0.9,0,1.4,0.1c1.6,0.2,3,0.7,4.1,1.4c1.3,0.8,1.9,1.9,1.7,3
					c-0.2,1.7-2.3,2.9-5.3,2.9c-0.5,0-0.9,0-1.4-0.1C390.5,160.2,388,158.3,388.3,156.3z M372.1,151l7.2,3.9l-7.4,3.6l-7.2-3.9
					L372.1,151z"/>
			</g>
			<path class="st1" d="M403.2,376.7v1.2h80.6v-9.4c0,0-3-0.5-8.2-1.1L403.2,376.7z"/>
			<path class="st1" d="M577.6,429.8c3.6-0.6,5.2-0.8,5.2-0.8v-48.7c0,0-5.8,1.3-19.2,2.6C572.8,393.9,576.4,412,577.6,429.8z"/>
			<g>
				<g>
					<path class="st3" d="M329.8,395.2h2.1L332,379h-2.5v-2.5h14.9l0.1,5.6h-2.8l-0.2-3.1h-6.1l-0.1,6.5h6.1v2.7h-6.1l-0.1,7h6.5
						l0.2-3.5h2.8l-0.2,5.9h-14.8V395.2z"/>
					<path class="st3" d="M348.4,395.2h2.1l0.1-16.2h-2.7v-2.5h5.6l9.8,12.8c0.6,0.8,1.5,2.2,2.1,3.2h0.1l-0.1-13.5H363v-2.5h7.4
						v2.5h-2.1l-0.1,18.7h-2.8L354.9,384c-0.6-0.8-1.2-1.6-1.5-2.2l-0.1,0.1l0.1,13.5h2.3v2.5h-7.4V395.2z"/>
				</g>
			</g>
			
				<linearGradient id="SVGID_1_" gradientUnits="userSpaceOnUse" x1="640.4312" y1="334.532" x2="640.434" y2="334.532" gradientTransform="matrix(-1 0 0 1 1142.9727 0)">
				<stop  offset="0" style="stop-color:#B98F16"/>
				<stop  offset="1" style="stop-color:#D2AD15"/>
			</linearGradient>
			<polygon class="st6" points="502.5,334.5 502.5,334.5 502.5,334.5 			"/>
			<g>
				<path class="st5" d="M577.2,234.4c0-11-14.7-7.5-22.8-7.5c-8.1,0-7.5-10.4-7.5-10.4c2.7,0,7.9,0,15.3,0
					C574.5,216.5,582.4,224,577.2,234.4z"/>
				<path class="st7" d="M529.6,211.9c3.6-3.6,7.3-5.6,12.6-5.6c11.7,0,28.7-0.7,31-6.9c2.1,2.2,1.9,6.5-3.1,11.5
					c13.2,0,15.5,3,16.9,5.8c3.4,7.3-2.5,17.7-9.7,17.7c5.2-10.4-2.7-17.9-14.9-17.9c-7.5,0-12.6,0-15.3,0h-2.3h-2.5
					c-1.8,0-3.8,0.9-5.4,2.6c-3.5,3.5-3.5,9.1,0,12.6L561,256c1.5,1.5,2.6,3.3,3.5,5.1l-40-30.7C522.8,224,524.5,216.9,529.6,211.9z
					"/>
			</g>
			<path class="st8" d="M500.9,188.1c-0.2-0.7-0.3-1.4-0.4-2.1c3.5-4.1,9.4-5.8,17.4-2.4c10,4.2,19.1-3.1,19.1-3.1
				c-6.9,13.2-16.4,8.9-24.7,6.3C507.8,185.4,503.5,186.8,500.9,188.1z"/>
			<path class="st8" d="M458.8,237.7c-8.5-4.9-15.3-8.4-15.4-8.4l0,0l3.2,14c0,0-9.6,15.6-14.7,24.1c0.1,0.1,0.2,0.1,0.3,0.2
				C432.2,267.5,458.8,237.7,458.8,237.7L458.8,237.7C458.8,237.7,458.8,237.7,458.8,237.7z"/>
			<path class="st5" d="M504.8,215.6c0-10.3-6.9-14.5-10-15.8c-4.6-0.2-9.3,0.2-13.4,1.9c1.3,12.1,18.7,28.3,29.2,31.9
				c0.1,0,0.2,0.1,0.2,0.1C505.8,229.8,514.1,215.6,504.8,215.6z"/>
			<path class="st4" d="M469.4,244L469.4,244c-3.6-2.2-7.2-4.3-10.6-6.3l0,0l-26.6,29.8c-1.5-0.8-3.1-1.3-4.9-1.3v10.5h0
				c-4.5,1-7.5,4.7-7.5,10.4h7.5l0,9.3c1,1.1,2.5,1.8,4.1,1.9L469.4,244C469.4,244,469.4,244,469.4,244z"/>
			<path class="st5" d="M508.5,243.6c-10.4,6.5-31,5.6-31,5.6c0,0,0,0,0,0c0,0,5.8,3.6,11.9,9.4L530,265
				C530,265,516.9,252,508.5,243.6z"/>
			<path class="st5" d="M552.9,316.8c-4.7,0-18.9-1.9-18.9-12.3c0-6.1,0-21.6,0-21.6l-10.8,17.7l-0.1,17.9
				c17.5,20.1,13.1,43,5.1,52.2v6.9c5-0.1,9.9-0.2,14.5-0.4l-1.2-5.2l6.5-11.3C547.9,360.8,545.1,324.6,552.9,316.8z"/>
			<path class="st7" d="M469.4,244l-38,54.3c0.1,0,0.1,0,0.2,0c0.6,0,13.4-9.5,13.4-9.5l32.4-39.6
				C474.9,247.4,472.2,245.7,469.4,244L469.4,244z"/>
			<path class="st9" d="M481.4,201.6c-14,7.3-20.5,28.2-38,27.6c0,0,19.9,10.3,34.1,19.9c0,0,36.8,1.7,36.8-14.9
				C504.9,234.3,482.9,215.3,481.4,201.6z"/>
			<path class="st4" d="M446.1,216.8c3-7.9,4.2-20.7,7.5-33.4l-15.9-10.1l-3.8-6.6H416l-3.3,5.8c6.9,0.7,11.3,1.2,11.5,1.2l3.1,0.4
				v25L446.1,216.8z"/>
			<path class="st7" d="M467.6,156v-10.7l11,4.9c-0.1-0.6-0.3-3.6,4.9-6.5c-0.2,3.2,4.5,5.6,9.9,7.3c-5.6,13.1-14,33.2-12.1,50.7
				c-14,7.3-20.5,28.2-38,27.6c0,0-4.5-2.1-6-4.7C454.1,224.5,445.1,178.6,467.6,156z"/>
			<path class="st7" d="M513.2,329.8c5.4,5.4,8.6,11.7,8.6,17.8c0,13.7-9.3,18.7-9.3,18.7c-11-3.5-14.1,7.6-14.8,11.7
				c3.9,0,7.9,0,12.1,0c6,0,12.6-0.1,18.3-0.2v-6.9c8-9.2,12.4-32.1-5.1-52.2L513.2,329.8z"/>
			<path class="st7" d="M502.5,310.7c0-2.2,0-6,0-8.1l0,0c0,0.5,0,1,0,1.5l-34.1,7.9l-22.5,44.4c6.8,0.6,12.8,1.1,18.1,1.7l-2.2-5.7
				l27.5-39.2L502.5,310.7z"/>
			<path class="st4" d="M452.5,315.7c-2.5,22.2-17.1,29.2-17.1,29.2s-2.8-0.7-5.7-0.7c-6.4,0-9.5,10.6-9.5,10.6
				c3.4,0.2,6.9,0.4,10.5,0.6c3,0.2,5.9,0.3,8.8,0.5c2.2,0.2,4.3,0.3,6.4,0.5l22.6-44.4L452.5,315.7z"/>
			<path class="st5" d="M502.5,290.3l-14.6-10.7L447,313.4c0,0,2.1,3,5.5,2.4l50-11.6C502.5,298.8,502.5,294,502.5,290.3z"/>
			<path class="st7" d="M477.5,249.2l-11.6,14.3l36.6,26.9c0-4.2,0-6.9,0-6.9c0-2.3-0.4-4.6-1.1-6.8c-2.1-7.1-7.1-13.3-12-18
				C483.5,252.9,477.8,249.4,477.5,249.2L477.5,249.2z"/>
			<path class="st4" d="M520.2,167.8l-9.4-7l-1.6-6.7c0,0-8.5-0.9-15.7-3.2c-5.6,13.1-14,33.2-12.1,50.7c13-5.3,32.8,1.9,32.8,1.9
				l-3.1-8.4l4.6-5.3c0,0-13.5,1.6-13.5,1.6c-4-9-0.7-13.4,8-13.4c3.6,0,6.4,1.8,6.4,1.8l1.9-6.1l-1.6-3l2.3,0.2L520.2,167.8z
				 M499.4,161.8c-2.5,0.1-4.5-1.5-4.6-3.6c0-0.2,0-0.5,0.1-0.7c3,0.2,6.2,0.6,8.8,1C503.4,160.3,501.6,161.7,499.4,161.8z"/>
			
				<linearGradient id="SVGID_2_" gradientUnits="userSpaceOnUse" x1="1548.424" y1="334.5097" x2="1548.4269" y2="334.5097" gradientTransform="matrix(1 0 0 1 -1351.5137 0)">
				<stop  offset="0" style="stop-color:#B98F16"/>
				<stop  offset="1" style="stop-color:#D2AD15"/>
			</linearGradient>
			<polygon class="st10" points="196.9,334.5 196.9,334.5 196.9,334.5 			"/>
			<g>
				<path class="st5" d="M122.3,234.4c0-11,14.7-7.5,22.8-7.5c8.1,0,7.5-10.4,7.5-10.4c-2.7,0-7.9,0-15.3,0
					C124.9,216.4,117.1,224,122.3,234.4z"/>
				<path class="st4" d="M169.9,211.9c-3.6-3.6-7.3-5.6-12.6-5.6c-11.7,0-28.7-0.7-31-6.9c-2.1,2.2-1.9,6.5,3.1,11.5
					c-13.2,0-15.5,3-16.9,5.8c-3.4,7.3,2.5,17.7,9.7,17.7c-5.2-10.4,2.7-17.9,14.9-17.9c7.5,0,12.6,0,15.3,0h2.3h2.5
					c1.8,0,3.8,0.9,5.4,2.6c3.5,3.5,3.5,9.1,0,12.6l-24.3,24.3c-1.5,1.5-2.6,3.3-3.5,5.1l40-30.7C176.6,224,174.9,216.9,169.9,211.9
					z"/>
			</g>
			<path class="st8" d="M198.5,188.1c0.2-0.7,0.3-1.4,0.4-2.1c-3.5-4.1-9.4-5.8-17.4-2.4c-10,4.2-19.1-3.1-19.1-3.1
				c6.9,13.2,16.4,8.9,24.7,6.3C191.7,185.4,195.9,186.8,198.5,188.1z"/>
			<path class="st4" d="M240.7,237.7c8.5-4.9,15.3-8.4,15.4-8.4l0,0l-3.2,14c0,0,9.6,15.6,14.7,24.1c-0.1,0.1-0.2,0.1-0.3,0.2
				L240.7,237.7L240.7,237.7C240.6,237.7,240.7,237.7,240.7,237.7z"/>
			<path class="st5" d="M204.7,199.7c-3.1,1.4-10,5.6-10,15.8c-9.4,0-1.1,14.2-6.1,18.1c0.1,0,0.2-0.1,0.2-0.1
				c10.5-3.6,27.9-19.8,29.2-31.9C214,200,209.3,199.5,204.7,199.7z"/>
			<path class="st7" d="M230.1,243.9L230.1,243.9c3.6-2.2,7.2-4.3,10.6-6.3c0,0,0,0,0,0l26.6,29.8c1.5-0.8,3.1-1.3,4.9-1.3v10.5h0
				c4.5,1,7.5,4.7,7.5,10.4h-7.5l0,9.3c-1,1.1-2.5,1.8-4.1,1.9L230.1,243.9C230,244,230.1,244,230.1,243.9z"/>
			<path class="st4" d="M191,243.6c10.4,6.5,31,5.6,31,5.6c0,0,0,0,0,0c0,0-5.8,3.6-11.9,9.4l-40.7,6.5
				C169.5,265,182.6,251.9,191,243.6z"/>
			<path class="st9" d="M146.6,316.8c4.7,0,18.9-1.9,18.9-12.3c0-6.1,0-21.6,0-21.6l10.8,17.7l0.1,17.9c-17.5,20.1-13.1,43-5.1,52.2
				v6.9c-5-0.1-9.9-0.2-14.5-0.4l1.2-5.2l-6.5-11.3C151.5,360.8,154.3,324.6,146.6,316.8z"/>
			<path class="st4" d="M171.3,377.7c5.7,0.1,12.2,0.2,18.3,0.2c4.2,0,8.3,0,12.1,0c-0.8-4.1-3.8-15.2-14.8-11.7c0,0-9.3-5-9.3-18.7
				c0-6.1,3.2-12.3,8.6-17.8l-9.8-11.2c-17.5,20.1-13.1,43-5.1,52.2V377.7z"/>
			<path class="st5" d="M230,244l38,54.3c-0.1,0-0.1,0-0.2,0c-0.6,0-13.4-9.5-13.4-9.5L222,249.1C224.5,247.4,227.2,245.7,230,244
				L230,244z"/>
			<path class="st9" d="M185.2,234.3c0,16.6,36.8,14.9,36.8,14.9c14.2-9.6,34-19.9,34.1-19.9c-17.5,0.6-23.9-20.4-38-27.6
				C216.6,215.3,194.5,234.3,185.2,234.3z"/>
			<path class="st5" d="M253.4,216.8c-3-7.9-4.2-20.7-7.5-33.4l15.9-10.1l3.8-6.6h17.9l3.3,5.8c-6.9,0.7-11.3,1.2-11.5,1.2l-3.1,0.4
				v25L253.4,216.8z"/>
			<path class="st4" d="M231.8,156v-10.7l-11,4.9c0.1-0.6,0.3-3.6-4.9-6.5c0.2,3.2-4.5,5.6-9.9,7.3c5.6,13.1,14,33.2,12.1,50.7
				c14,7.3,20.5,28.2,38,27.6c0,0,4.5-2.1,6-4.7C245.4,224.5,254.4,178.6,231.8,156z"/>
			<path class="st7" d="M210.1,258.5C210.1,258.5,210.1,258.5,210.1,258.5L210.1,258.5C210.1,258.5,210.1,258.5,210.1,258.5z
				 M138.5,282.9c3.6,3.6,8.4,5.6,13.5,5.6c5.1,0,9.9-2,13.5-5.6l10.8,17.7l0.1,17.9l20.5,23.5c0-6.5,0.1-58.7,0.1-58.7
				c0-2.3,0.4-4.6,1.1-6.8c2.1-7.1,7.1-13.3,12-18l-40.7,6.5l-8.3,8.2c0,0-9,9-15.5,2.5c-3.5-3.5-3.5-9.1,0-12.6l24.3-24.3
				c2.4-2.4,4-5.3,4.9-8.4l-40,30.7C131.4,268.2,132.6,277,138.5,282.9z"/>
			<path class="st9" d="M197,310.6c0-2.2,0-6,0-8.1l0,0c0,0.5,0,1,0,1.5L231,312l22.5,44.4c-6.8,0.6-12.8,1.1-18.1,1.7l2.2-5.7
				l-27.5-39.2L197,310.6z"/>
			<path class="st5" d="M246.9,315.7c2.5,22.2,17.1,29.2,17.1,29.2s2.8-0.7,5.7-0.7c6.4,0,9.5,10.6,9.5,10.6
				c-3.4,0.2-6.9,0.4-10.5,0.6c-3,0.2-5.9,0.3-8.8,0.5c-2.2,0.2-4.3,0.3-6.4,0.5L231,312L246.9,315.7z"/>
			<path class="st4" d="M197,290.3l14.6-10.7l40.8,33.8c0,0-2.1,3-5.5,2.4l-50-11.6C197,298.8,197,293.9,197,290.3z"/>
			<path class="st8" d="M222,249.1l11.6,14.3L197,290.3c0-4.2,0-6.9,0-6.9c0-2.3,0.4-4.6,1.1-6.8c2.1-7.1,7.1-13.3,12-18
				C216,252.9,221.6,249.4,222,249.1L222,249.1z"/>
			<path class="st7" d="M206,150.9c-7.2,2.2-15.7,3.2-15.7,3.2l-1.6,6.7l-9.4,7l1,3l2.3-0.2l-1.6,3l1.9,6.1c0,0,2.8-1.8,6.4-1.8
				c8.7,0,12,4.4,8,13.4c0,0-13.5-1.6-13.5-1.6l4.6,5.3l-3.1,8.4c0,0,19.8-7.2,32.8-1.9C220,184.1,211.6,164,206,150.9z M200,161.7
				c-2.2-0.1-4-1.5-4.3-3.2c2.6-0.4,5.8-0.8,8.8-1c0,0.2,0.1,0.5,0.1,0.7C204.6,160.2,202.5,161.8,200,161.7z"/>
			<path class="st5" d="M419.9,307.7c0,39.4-70.1,53.3-70.1,53.3s-70.1-13.9-70.1-53.3c0-35.4,0-127,0-127s23.7-4.5,70.1-4.5
				c46.4,0,70.1,4.5,70.1,4.5S419.9,275.1,419.9,307.7z"/>
			<path class="st8" d="M349.7,361c0,0,70.1-13.9,70.1-53.3c0-32.6,0-127,0-127s-23.7-4.5-70.1-4.5c-10.9,0-20.6,0.2-29,0.6
				c63.3,2.5,88.6,11.1,88.6,11.1s0.1,88.6,0.1,121.1C409.4,341.5,349.7,361,349.7,361z"/>
			<path class="st11" d="M363.9,253.1l-5.4-0.7l-1.7,2.2l-12.5-8c1.3,6.3,4.7,18.3,13.5,28.6c5.9,4.3,12,8.7,16.9,12.2
				c-0.4-20.6-7.4-32-9.2-36.6L363.9,253.1z"/>
			<g>
				<path class="st3" d="M338.2,261.1c-6.6-4.7-4.4-14-0.1-18.3l18.7,11.9l1.7-2.2l5.4,0.7l1.7-2.2l13.9,2.4
					c-2.6-4.1-6.9-10.8-13.4-15.3l1.7-2.2c-3.3-1.6-11-2.8-19.8-2.8c-6.6,0-13.5,0-13.5,0l9.5-27.2c2.5-7.3-2-13.2-6.9-13.7
					c-7.4-0.8-10.5,7.2-10.5,7.2l8.1,8.3c0.2,0-10.5,25-10.5,25c-1.1,2.6-1.8,6-1.8,9.6c0,7,3.1,14.1,9.6,20.4
					c5.5,5.4,29.4,24.1,29.4,24.1l1.9-2.6l11.6,3.4C374.7,287.5,340.1,262.4,338.2,261.1z"/>
			</g>
			<path class="st12" d="M344.3,246.7l-6.2-3.9c-4.3,4.4-6.5,13.6,0.1,18.3c2,1.4,10.5,7.6,19.6,14.2C349,265,345.6,253,344.3,246.7
				z"/>
			<path d="M379.4,253.3l-13.9-2.4c1.8,4.6,8.8,15.9,9.2,36.6c5.5,4,9.4,6.8,9.4,6.8l2.7-3.6l7.2,5c-0.4-3.3-0.9-6.4-1.6-9.3
				C389.3,271.7,384.2,260.8,379.4,253.3z"/>
			<path class="st11" d="M367.3,338.5c-0.3-0.8-0.9-1.5-2-1.5h-4v-19.1l-3.3,1.5v17.5h-6.1c-0.7,0-2.1,1-2.5,1h-2.7
				c-1.1,0-1.7,0.7-2,1.5l-0.2,0.6l-0.1,0.8c0,0.2,0,0.4,0,0.4h6.6l1.4-1h2.8c-1.7,1.1-3.6,2.2-4.3,2.6c-0.9,0.6-1.1,1.5-0.9,2.3
				l0.1,0.6l0.3,0.7c0.1,0.2,0.2,0.4,0.2,0.4l11.2-6.6h6.1c0,0,0-0.2,0-0.4l-0.2-0.8L367.3,338.5z"/>
			<path class="st12" d="M309.3,267.8l-0.6,0.8l0.4,5.4l1-1.4l0.7,0.1l4.3,7.4c0,0,0.1,0,0.1-0.1l0.5-0.4l0.5-0.4
				c0.6-0.7,1.1-1.6,0.5-2.7c-0.2-0.3-0.4-0.8-0.8-1.4l12.6,6l5.2-1.2l-20.7-9.8c-0.5-0.8-1.1-2-1.1-2
				C311.6,267.6,310.3,267.3,309.3,267.8z"/>
			<polygon points="334.6,207.6 326.4,199.3 291.4,207.6 			"/>
			<path class="st11" d="M308,269.5l-6.7,0.9c0,0-2,2.6-3,3.9c-0.7,0.9-0.4,1.8,0,2.5l0.4,0.5l0.5,0.5c0.2,0.2,0.3,0.3,0.3,0.3
				l3.4-4.6l2.8-0.4c-1.3,1.8-2.7,3.7-3.2,4.3c-0.7,0.9-0.4,1.8,0,2.5l0.4,0.6l0.4,0.5c0.2,0.2,0.3,0.3,0.3,0.3l5.4-7.3l-0.4-5.4
				L308,269.5z"/>
			<path class="st11" d="M353.3,280.3c-1-0.8-2.2-1.7-3.3-2.6v9.6l-0.5,0.1l-15.7-7.5l-5.2,1.2l19.6,9.3l2,2.6l3.2-0.5l1.2-3.1
				l-1.4-1.8V280.3z"/>
			<path d="M339.2,199.2c0,0-3.8,1.7-4.7,1.7c-0.9,0-1.8-0.8-1.8-1.7c0-0.9,0.9-1.7,1.8-1.7C335.4,197.6,339.2,199.2,339.2,199.2z"
				/>
			<path d="M300.7,220.1c-2.4-4.2,0.4-6.7,2.3-8.7c1.4-1.4,2.6-2.6,2.6-4.4c0-2.4-1.3-2.8-4.6-3.3c-2-0.3-4-0.6-5.1-2.1
				c-0.7-0.8-0.9-1.8-0.8-2.9c0.3-2.3,2.7-4,2.9-4.2c0.7-0.5,1.6-0.3,2,0.4c0.5,0.7,0.3,1.6-0.4,2c-0.5,0.4-1.6,1.4-1.7,2.2
				c0,0.2,0,0.4,0.2,0.6c0.4,0.6,1.9,0.8,3.3,1c2.9,0.4,7.2,1,7.1,6.2c0,3-1.9,4.8-3.5,6.5c-1.8,1.9-3.3,3.2-2.3,5.8
				c0.7,1.7,3.6,2.6,3,3.6C305.3,223.9,301.9,222.1,300.7,220.1z"/>
			<path d="M361.3,286.6c0,0-1.3-1-3.3-2.6v6h0l-1.6,2.9l1.6,2.8v23.7l3.3-1.5v-22.1l1.6-2.9l-1.6-2.9V286.6z"/>
			<line class="st12" x1="385.8" y1="292.1" x2="384.2" y2="294.3"/>
			<path class="st12" d="M385.2,248c-5-5.2-11-9.4-17.6-12.2L366,238c6.5,4.5,10.9,11.1,13.4,15.3c4.8,7.5,9.9,18.4,13,33
				c0.7,2.9,1.2,6,1.6,9.3l6.9,4.9C404.5,280.4,397.8,261,385.2,248z"/>
			<path class="st4" d="M489.3,258.6L489.3,258.6C489.3,258.6,489.3,258.6,489.3,258.6C489.3,258.6,489.3,258.6,489.3,258.6z
				 M564.6,261.1l-40-30.7c0.8,3.1,2.5,6,4.9,8.4l24.3,24.3c3.5,3.5,3.5,9.1,0,12.6c-6.5,6.5-15.5-2.5-15.5-2.5L530,265l-40.7-6.5
				c4.9,4.7,9.9,10.9,12,18c0.7,2.2,1.1,4.5,1.1,6.8c0,0,0.1,52.1,0.1,58.7l20.5-23.5l0.1-17.9l10.8-17.7c3.6,3.6,8.4,5.6,13.5,5.6
				c5.1,0,9.9-2,13.5-5.6C566.8,277,568,268.2,564.6,261.1z"/>
		</g>
	</g>
</g>
</svg>
